<svg width="12" height="12" viewBox="0 0 12 12" fill="none" xmlns="http://www.w3.org/2000/svg">
    <path
        d="M8.91667 0.75H1.91667C1.26917 0.75 0.75 1.275 0.75 1.91667V10.0833C0.75 10.725 1.26917 11.25 1.91667 11.25H10.0833C10.725 11.25 11.25 10.725 11.25 10.0833V3.08333L8.91667 0.75ZM6 10.0833C5.03167 10.0833 4.25 9.30167 4.25 8.33333C4.25 7.365 5.03167 6.58333 6 6.58333C6.96833 6.58333 7.75 7.365 7.75 8.33333C7.75 9.30167 6.96833 10.0833 6 10.0833ZM7.75 4.25H1.91667V1.91667H7.75V4.25Z"
        fill="black" />
</svg>