<svg xmlns="http://www.w3.org/2000/svg" viewBox="0 0 512 512"><path d="m217.545 147.142-46.827 90.59c42.288-17.282 87.413-44.99 124.354-89.397l-10.556-20.428c-8.538 4.422-18.239 6.921-28.517 6.921-10.278 0-19.972-2.5-28.51-6.921l-9.944 19.235z" fill="#ffa233"/><path d="M295.071 148.335c-36.942 44.407-82.067 72.115-124.354 89.397l-61.614 119.184c59.116-9.132 159.956-38.21 226.257-130.643l-40.289-77.938z" fill="#f9eacd"/><path d="M335.361 226.272c-66.301 92.431-167.143 121.51-226.257 130.643l-31.466 60.871s184.403 3.021 281.499-145.516l-23.776-45.998z" fill="#ffa233"/><path d="M359.137 272.27c-97.097 148.537-281.5 145.516-281.5 145.516L57.758 456.24c27.816 16.055 61.726 27.847 98.484 35.331 35.248-3.83 166.632-25.27 245.735-136.424l-42.84-82.877z" fill="#f9eacd"/><path d="M401.979 355.148c-79.104 111.154-210.488 132.594-245.735 136.423 54.549 11.124 115.364 12.759 171.805 4.796 35.55-21.159 70.918-50.947 98.926-92.866l-24.996-48.353z" fill="#ffa233"/><path d="M426.974 403.503c-28.008 41.919-63.376 71.706-98.926 92.866 47.19-6.642 91.327-19.997 126.192-40.127l-27.266-52.739z" fill="#f9eacd"/><path d="M284.51 127.906c19.942-10.33 33.569-31.151 33.569-55.157 0-34.288-27.791-62.078-62.08-62.078-34.283 0-62.078 27.791-62.078 62.078 0 24.006 13.63 44.831 33.569 55.157a61.706 61.706 0 0 0 10.23 4.184 62.023 62.023 0 0 0 18.28 2.737c10.276.001 19.977-2.499 28.51-6.921z" fill="#7ba9d6"/><path d="M463.715 451.342 304.57 143.481l-.046-.09-6.027-11.659C316.8 118.509 328.746 97 328.746 72.745 328.746 32.633 296.111 0 255.998 0c-40.111 0-72.745 32.633-72.745 72.745 0 24.255 11.946 45.762 30.249 58.987l-5.427 10.501c-.017.029-.031.059-.046.09L48.284 451.342a10.663 10.663 0 0 0 4.142 14.136c51.207 29.566 125.467 46.521 203.735 46.521 24.834 0 49.27-1.723 72.699-5.017a10.46 10.46 0 0 0 1.427-.206c49.648-7.126 94.7-21.33 129.286-41.298a10.663 10.663 0 0 0 4.142-14.136zm-347.603-84.757c48.167-8.077 115.796-28.023 174.651-76.927 4.531-3.764 5.152-10.49 1.388-15.022-3.764-4.531-10.49-5.152-15.022-1.388-49.036 40.746-104.83 60.108-148.581 69.283l49.878-96.486c45.017-18.959 83.394-45.469 114.333-78.957l54.009 104.48c-38.669 56.543-94.897 96.48-167.238 118.752-34.954 10.761-65.676 14.639-83.976 16.03l20.558-39.765zM279.57 141.576l2.721 5.265c-24.17 27.635-53.605 50.482-87.834 68.187l31.356-60.655a321.695 321.695 0 0 0 14.388-10.63 72.544 72.544 0 0 0 15.797 1.748c6.792 0 13.363-.956 19.605-2.704.514-.144 1.029-.285 1.541-.439.396-.121.787-.247 1.179-.375.416-.134.834-.255 1.247-.397zM255.998 21.334c28.349 0 51.413 23.064 51.413 51.411 0 20.342-11.88 37.963-29.064 46.291-.057.029-.112.057-.169.083a51.084 51.084 0 0 1-11.929 4.008 51.672 51.672 0 0 1-2.816.483c-.645.094-1.294.179-1.948.247-.337.035-.68.061-1.019.09-.566.05-1.134.1-1.707.131-.542.027-1.089.035-1.637.048-.375.006-.746.027-1.123.027-.375 0-.748-.021-1.121-.027-.548-.013-1.096-.02-1.64-.048a50.06 50.06 0 0 1-1.702-.131c-.341-.029-.684-.054-1.023-.09-.652-.068-1.3-.155-1.944-.247a53.236 53.236 0 0 1-2.815-.483c-.087-.019-.177-.037-.265-.057a51.117 51.117 0 0 1-11.853-4.042c-17.178-8.332-29.049-25.947-29.049-46.286 0-28.344 23.064-51.408 51.411-51.408zM72.016 451.888l12.161-23.522c15.118-.463 54.034-3.096 100.919-17.435 34.804-10.646 66.768-25.577 95.005-44.381 30.347-20.209 56.401-44.955 77.671-73.691l31.7 61.319c-35.064 46.833-80.496 75.656-112.977 91.74-5.279 2.612-7.44 9.013-4.825 14.292a10.667 10.667 0 0 0 14.293 4.826c32.688-16.186 77.733-44.551 114.301-89.98l14.298 27.66c-23.31 33.276-53.603 61.293-90.149 83.366-21.972 3.006-44.905 4.582-68.253 4.582-70.138.002-136.513-14.054-184.144-38.776zm303.422 24.166c18.845-15.551 35.598-32.958 50.09-52.128l14.455 27.962c-18.891 9.806-40.721 17.928-64.545 24.166z" fill="#000003"/><path d="M307.532 270.274c2.842 0 5.675-1.13 7.775-3.362l.523-.542c4.079-4.25 3.942-11.002-.308-15.085-4.25-4.079-11.002-3.942-15.082.308l-.677.706c-4.035 4.291-3.827 11.045.467 15.078a10.612 10.612 0 0 0 7.302 2.897zM246.994 458.38l-.706.269c-5.517 2.063-8.319 8.208-6.256 13.728 1.602 4.288 5.669 6.936 9.992 6.936 1.242 0 2.505-.219 3.734-.68l.796-.302c5.511-2.088 8.284-8.246 6.197-13.755-2.091-5.509-8.249-8.283-13.757-6.196z" fill="#000003"/></svg>
